<mxfile host="app.diagrams.net" agent="Mozilla/5.0 (X11; CrOS x86_64 14541.0.0) AppleWebKit/537.36 (KHTML, like Gecko) Chrome/132.0.0.0 Safari/537.36" version="26.0.16" pages="4">
  <diagram name="Página-1" id="E1HN-95wdDH6UfLsAU3w">
    <mxGraphModel dx="1222" dy="618" grid="1" gridSize="10" guides="1" tooltips="1" connect="1" arrows="1" fold="1" page="1" pageScale="1" pageWidth="827" pageHeight="1169" math="0" shadow="0">
      <root>
        <mxCell id="0" />
        <mxCell id="1" parent="0" />
        <mxCell id="KZNAbbzOrLOnb-SkeCNx-12" style="edgeStyle=orthogonalEdgeStyle;rounded=0;orthogonalLoop=1;jettySize=auto;html=1;exitX=1;exitY=0.3333333333333333;exitDx=0;exitDy=0;exitPerimeter=0;" edge="1" parent="1" source="KZNAbbzOrLOnb-SkeCNx-1" target="KZNAbbzOrLOnb-SkeCNx-10">
          <mxGeometry relative="1" as="geometry">
            <mxPoint x="320" y="120" as="targetPoint" />
          </mxGeometry>
        </mxCell>
        <mxCell id="KZNAbbzOrLOnb-SkeCNx-13" style="edgeStyle=orthogonalEdgeStyle;rounded=0;orthogonalLoop=1;jettySize=auto;html=1;exitX=1;exitY=1;exitDx=0;exitDy=0;exitPerimeter=0;" edge="1" parent="1" source="KZNAbbzOrLOnb-SkeCNx-1" target="KZNAbbzOrLOnb-SkeCNx-11">
          <mxGeometry relative="1" as="geometry" />
        </mxCell>
        <mxCell id="KZNAbbzOrLOnb-SkeCNx-1" value="cliente" style="shape=umlActor;verticalLabelPosition=bottom;verticalAlign=top;html=1;outlineConnect=0;" vertex="1" parent="1">
          <mxGeometry x="140" y="140" width="100" height="190" as="geometry" />
        </mxCell>
        <mxCell id="KZNAbbzOrLOnb-SkeCNx-2" value="recepcionista" style="shape=umlActor;verticalLabelPosition=bottom;verticalAlign=top;html=1;outlineConnect=0;" vertex="1" parent="1">
          <mxGeometry x="540" y="130" width="100" height="190" as="geometry" />
        </mxCell>
        <mxCell id="KZNAbbzOrLOnb-SkeCNx-3" value="" style="shape=hexagon;perimeter=hexagonPerimeter2;whiteSpace=wrap;html=1;fixedSize=1;" vertex="1" parent="1">
          <mxGeometry x="480" y="210" width="200" height="110" as="geometry" />
        </mxCell>
        <mxCell id="KZNAbbzOrLOnb-SkeCNx-4" value="" style="triangle;whiteSpace=wrap;html=1;direction=north;" vertex="1" parent="1">
          <mxGeometry x="560" y="100" width="60" height="40" as="geometry" />
        </mxCell>
        <mxCell id="KZNAbbzOrLOnb-SkeCNx-5" value="" style="shape=cylinder3;whiteSpace=wrap;html=1;boundedLbl=1;backgroundOutline=1;size=15;" vertex="1" parent="1">
          <mxGeometry x="510" y="180" width="30" height="50" as="geometry" />
        </mxCell>
        <mxCell id="KZNAbbzOrLOnb-SkeCNx-6" value="" style="ellipse;whiteSpace=wrap;html=1;" vertex="1" parent="1">
          <mxGeometry x="510" y="180" width="25" height="20" as="geometry" />
        </mxCell>
        <mxCell id="KZNAbbzOrLOnb-SkeCNx-10" value="fazer reserva" style="ellipse;whiteSpace=wrap;html=1;" vertex="1" parent="1">
          <mxGeometry x="330" y="75" width="120" height="90" as="geometry" />
        </mxCell>
        <mxCell id="KZNAbbzOrLOnb-SkeCNx-11" value="cancelar reserva" style="ellipse;whiteSpace=wrap;html=1;" vertex="1" parent="1">
          <mxGeometry x="330" y="250" width="130" height="90" as="geometry" />
        </mxCell>
        <mxCell id="KZNAbbzOrLOnb-SkeCNx-15" value="observação : diagramas de caso ao uso ( o que está sendo utilizado) representa um requisito funcional" style="rounded=1;whiteSpace=wrap;html=1;" vertex="1" parent="1">
          <mxGeometry x="120" y="400" width="450" height="130" as="geometry" />
        </mxCell>
      </root>
    </mxGraphModel>
  </diagram>
  <diagram id="bVm4wV5JOqbfKvYTUhnH" name="Página-2">
    <mxGraphModel dx="1032" dy="530" grid="1" gridSize="10" guides="1" tooltips="1" connect="1" arrows="1" fold="1" page="1" pageScale="1" pageWidth="827" pageHeight="1169" math="0" shadow="0">
      <root>
        <mxCell id="0" />
        <mxCell id="1" parent="0" />
        <mxCell id="aD3S1tOP42EshW_u576M-6" style="edgeStyle=orthogonalEdgeStyle;rounded=0;orthogonalLoop=1;jettySize=auto;html=1;exitX=1;exitY=0.3333333333333333;exitDx=0;exitDy=0;exitPerimeter=0;" edge="1" parent="1" source="aD3S1tOP42EshW_u576M-1" target="aD3S1tOP42EshW_u576M-4">
          <mxGeometry relative="1" as="geometry" />
        </mxCell>
        <mxCell id="aD3S1tOP42EshW_u576M-7" style="edgeStyle=orthogonalEdgeStyle;rounded=0;orthogonalLoop=1;jettySize=auto;html=1;exitX=1;exitY=1;exitDx=0;exitDy=0;exitPerimeter=0;entryX=0;entryY=0.5;entryDx=0;entryDy=0;" edge="1" parent="1" source="aD3S1tOP42EshW_u576M-1" target="aD3S1tOP42EshW_u576M-5">
          <mxGeometry relative="1" as="geometry" />
        </mxCell>
        <mxCell id="aD3S1tOP42EshW_u576M-8" style="edgeStyle=orthogonalEdgeStyle;rounded=0;orthogonalLoop=1;jettySize=auto;html=1;exitX=0.5;exitY=0;exitDx=0;exitDy=0;exitPerimeter=0;entryX=0;entryY=0.5;entryDx=0;entryDy=0;" edge="1" parent="1" source="aD3S1tOP42EshW_u576M-1" target="aD3S1tOP42EshW_u576M-3">
          <mxGeometry relative="1" as="geometry" />
        </mxCell>
        <mxCell id="aD3S1tOP42EshW_u576M-1" value="Cliente" style="shape=umlActor;verticalLabelPosition=bottom;verticalAlign=top;html=1;outlineConnect=0;" vertex="1" parent="1">
          <mxGeometry x="20" y="80" width="90" height="140" as="geometry" />
        </mxCell>
        <mxCell id="aD3S1tOP42EshW_u576M-3" value="navegar pelo catálogo" style="ellipse;whiteSpace=wrap;html=1;fillColor=#0050ef;fontColor=#ffffff;strokeColor=#001DBC;" vertex="1" parent="1">
          <mxGeometry x="210" y="40" width="120" height="80" as="geometry" />
        </mxCell>
        <mxCell id="aD3S1tOP42EshW_u576M-4" value="colocar item no carrinho&amp;nbsp;" style="ellipse;whiteSpace=wrap;html=1;fillColor=#0050ef;fontColor=#ffffff;strokeColor=#001DBC;" vertex="1" parent="1">
          <mxGeometry x="200" y="130" width="120" height="80" as="geometry" />
        </mxCell>
        <mxCell id="aD3S1tOP42EshW_u576M-9" style="edgeStyle=orthogonalEdgeStyle;rounded=0;orthogonalLoop=1;jettySize=auto;html=1;exitX=0.5;exitY=0;exitDx=0;exitDy=0;" edge="1" parent="1" source="aD3S1tOP42EshW_u576M-5" target="aD3S1tOP42EshW_u576M-10">
          <mxGeometry relative="1" as="geometry">
            <mxPoint x="220" y="360" as="targetPoint" />
          </mxGeometry>
        </mxCell>
        <mxCell id="aD3S1tOP42EshW_u576M-18" style="edgeStyle=orthogonalEdgeStyle;rounded=0;orthogonalLoop=1;jettySize=auto;html=1;exitX=0.5;exitY=1;exitDx=0;exitDy=0;entryX=0;entryY=0.5;entryDx=0;entryDy=0;" edge="1" parent="1" source="aD3S1tOP42EshW_u576M-5" target="aD3S1tOP42EshW_u576M-19">
          <mxGeometry relative="1" as="geometry">
            <mxPoint x="600" y="440" as="targetPoint" />
          </mxGeometry>
        </mxCell>
        <mxCell id="aD3S1tOP42EshW_u576M-5" value="finalizar compra&lt;span style=&quot;color: rgba(0, 0, 0, 0); font-family: monospace; font-size: 0px; text-align: start; text-wrap-mode: nowrap;&quot;&gt;%3CmxGraphModel%3E%3Croot%3E%3CmxCell%20id%3D%220%22%2F%3E%3CmxCell%20id%3D%221%22%20parent%3D%220%22%2F%3E%3CmxCell%20id%3D%222%22%20value%3D%22%26lt%3Bspan%20style%3D%26quot%3Bcolor%3A%20rgba(0%2C%200%2C%200%2C%200)%3B%20font-family%3A%20monospace%3B%20font-size%3A%200px%3B%20text-align%3A%20start%3B%20text-wrap-mode%3A%20nowrap%3B%26quot%3B%26gt%3B%253CmxGraphModel%253E%253Croot%253E%253CmxCell%2520id%253D%25220%2522%252F%253E%253CmxCell%2520id%253D%25221%2522%2520parent%253D%25220%2522%252F%253E%253CmxCell%2520id%253D%25222%2522%2520value%253D%2522%2522%2520style%253D%2522ellipse%253BwhiteSpace%253Dwrap%253Bhtml%253D1%253B%2522%2520vertex%253D%25221%2522%2520parent%253D%25221%2522%253E%253CmxGeometry%2520x%253D%2522360%2522%2520y%253D%2522130%2522%2520width%253D%2522120%2522%2520height%253D%252280%2522%2520as%253D%2522geometry%2522%252F%253E%253C%252FmxCell%253E%253C%252Froot%253E%253C%252FmxGraphModel%253E%26lt%3B%2Fspan%26gt%3B%22%20style%3D%22ellipse%3BwhiteSpace%3Dwrap%3Bhtml%3D1%3B%22%20vertex%3D%221%22%20parent%3D%221%22%3E%3CmxGeometry%20x%3D%22370%22%20y%3D%22140%22%20width%3D%22120%22%20height%3D%2280%22%20as%3D%22geometry%22%2F%3E%3C%2FmxCell%3E%3C%2Froot%3E%3C%2FmxGraphModel%3E&lt;/span&gt;" style="ellipse;whiteSpace=wrap;html=1;fillColor=#e3c800;fontColor=#000000;strokeColor=#B09500;" vertex="1" parent="1">
          <mxGeometry x="160" y="420" width="120" height="80" as="geometry" />
        </mxCell>
        <mxCell id="aD3S1tOP42EshW_u576M-10" value="informar endereço" style="ellipse;whiteSpace=wrap;html=1;fillColor=#e3c800;fontColor=#000000;strokeColor=#B09500;" vertex="1" parent="1">
          <mxGeometry x="160" y="280" width="120" height="80" as="geometry" />
        </mxCell>
        <mxCell id="aD3S1tOP42EshW_u576M-13" style="edgeStyle=orthogonalEdgeStyle;rounded=0;orthogonalLoop=1;jettySize=auto;html=1;exitX=0;exitY=0.5;exitDx=0;exitDy=0;entryX=1;entryY=0.5;entryDx=0;entryDy=0;" edge="1" parent="1" source="aD3S1tOP42EshW_u576M-11" target="aD3S1tOP42EshW_u576M-5">
          <mxGeometry relative="1" as="geometry" />
        </mxCell>
        <mxCell id="aD3S1tOP42EshW_u576M-11" value="preencher dados do cartão de crédito" style="ellipse;whiteSpace=wrap;html=1;fillColor=#e3c800;fontColor=#000000;strokeColor=#B09500;" vertex="1" parent="1">
          <mxGeometry x="330" y="270" width="120" height="80" as="geometry" />
        </mxCell>
        <mxCell id="aD3S1tOP42EshW_u576M-15" value="Enviar email" style="ellipse;whiteSpace=wrap;html=1;fillColor=#e51400;fontColor=#ffffff;strokeColor=#B20000;" vertex="1" parent="1">
          <mxGeometry x="350" y="90" width="120" height="80" as="geometry" />
        </mxCell>
        <mxCell id="aD3S1tOP42EshW_u576M-17" value="" style="edgeStyle=orthogonalEdgeStyle;rounded=0;orthogonalLoop=1;jettySize=auto;html=1;exitX=0;exitY=0.5;exitDx=0;exitDy=0;" edge="1" parent="1" source="aD3S1tOP42EshW_u576M-16" target="aD3S1tOP42EshW_u576M-11">
          <mxGeometry relative="1" as="geometry" />
        </mxCell>
        <mxCell id="aD3S1tOP42EshW_u576M-16" value="verificar dados do cartão de crédito" style="ellipse;whiteSpace=wrap;html=1;fillColor=#fa6800;fontColor=#000000;strokeColor=#C73500;" vertex="1" parent="1">
          <mxGeometry x="570" y="250" width="130" height="80" as="geometry" />
        </mxCell>
        <mxCell id="aD3S1tOP42EshW_u576M-19" value="faturar compra" style="ellipse;whiteSpace=wrap;html=1;fillColor=#fa6800;fontColor=#000000;strokeColor=#C73500;" vertex="1" parent="1">
          <mxGeometry x="590" y="400" width="130" height="80" as="geometry" />
        </mxCell>
        <mxCell id="aD3S1tOP42EshW_u576M-25" style="edgeStyle=orthogonalEdgeStyle;rounded=0;orthogonalLoop=1;jettySize=auto;html=1;exitX=0;exitY=0.3333333333333333;exitDx=0;exitDy=0;exitPerimeter=0;entryX=1;entryY=0.5;entryDx=0;entryDy=0;" edge="1" parent="1" source="aD3S1tOP42EshW_u576M-21" target="aD3S1tOP42EshW_u576M-15">
          <mxGeometry relative="1" as="geometry" />
        </mxCell>
        <mxCell id="aD3S1tOP42EshW_u576M-26" value="" style="edgeStyle=orthogonalEdgeStyle;rounded=0;orthogonalLoop=1;jettySize=auto;html=1;" edge="1" parent="1" source="aD3S1tOP42EshW_u576M-21" target="aD3S1tOP42EshW_u576M-16">
          <mxGeometry relative="1" as="geometry" />
        </mxCell>
        <mxCell id="aD3S1tOP42EshW_u576M-21" value="sistema" style="shape=umlActor;verticalLabelPosition=bottom;verticalAlign=top;html=1;outlineConnect=0;" vertex="1" parent="1">
          <mxGeometry x="500" y="70" width="90" height="140" as="geometry" />
        </mxCell>
        <mxCell id="aD3S1tOP42EshW_u576M-22" style="edgeStyle=orthogonalEdgeStyle;rounded=0;orthogonalLoop=1;jettySize=auto;html=1;exitX=0.5;exitY=0;exitDx=0;exitDy=0;entryX=0;entryY=1;entryDx=0;entryDy=0;entryPerimeter=0;" edge="1" parent="1" source="aD3S1tOP42EshW_u576M-16" target="aD3S1tOP42EshW_u576M-21">
          <mxGeometry relative="1" as="geometry" />
        </mxCell>
        <mxCell id="aD3S1tOP42EshW_u576M-23" style="edgeStyle=orthogonalEdgeStyle;rounded=0;orthogonalLoop=1;jettySize=auto;html=1;exitX=1;exitY=0.5;exitDx=0;exitDy=0;entryX=1;entryY=1;entryDx=0;entryDy=0;entryPerimeter=0;" edge="1" parent="1" source="aD3S1tOP42EshW_u576M-19" target="aD3S1tOP42EshW_u576M-21">
          <mxGeometry relative="1" as="geometry">
            <Array as="points">
              <mxPoint x="740" y="440" />
              <mxPoint x="740" y="210" />
            </Array>
          </mxGeometry>
        </mxCell>
        <mxCell id="a7bnZvBlZTokewP7c96D-1" value="Comprar produto" style="edgeStyle=none;orthogonalLoop=1;jettySize=auto;html=1;rounded=0;" edge="1" parent="1">
          <mxGeometry width="80" relative="1" as="geometry">
            <mxPoint x="380" y="590" as="sourcePoint" />
            <mxPoint x="460" y="590" as="targetPoint" />
            <Array as="points" />
          </mxGeometry>
        </mxCell>
      </root>
    </mxGraphModel>
  </diagram>
  <diagram id="4U36DtS1Bmo4pdIWp__p" name="Página-3">
    <mxGraphModel dx="1859" dy="2868" grid="1" gridSize="10" guides="1" tooltips="1" connect="1" arrows="1" fold="1" page="1" pageScale="1" pageWidth="827" pageHeight="1169" math="0" shadow="0">
      <root>
        <mxCell id="0" />
        <mxCell id="1" parent="0" />
        <mxCell id="1AF4PMz-zZm__ZCTEytI-11" value="sistema de reservas de hotel&amp;nbsp;" style="shape=note;whiteSpace=wrap;html=1;backgroundOutline=1;fontColor=#000000;darkOpacity=0.05;fillColor=#FFF9B2;strokeColor=none;fillStyle=solid;direction=west;gradientDirection=north;gradientColor=#FFF2A1;shadow=1;size=20;pointerEvents=1;" parent="1" vertex="1">
          <mxGeometry x="-255" y="-920" width="210" height="160" as="geometry" />
        </mxCell>
        <mxCell id="1AF4PMz-zZm__ZCTEytI-13" style="edgeStyle=orthogonalEdgeStyle;rounded=0;orthogonalLoop=1;jettySize=auto;html=1;exitX=1;exitY=0.3333333333333333;exitDx=0;exitDy=0;exitPerimeter=0;entryX=0;entryY=0.5;entryDx=0;entryDy=0;" parent="1" source="1AF4PMz-zZm__ZCTEytI-12" target="1AF4PMz-zZm__ZCTEytI-14" edge="1">
          <mxGeometry relative="1" as="geometry">
            <mxPoint x="370" y="-920" as="targetPoint" />
          </mxGeometry>
        </mxCell>
        <mxCell id="1AF4PMz-zZm__ZCTEytI-12" value="Funcionário de&amp;nbsp;&lt;div&gt;marketing&lt;/div&gt;" style="shape=umlActor;verticalLabelPosition=bottom;verticalAlign=top;html=1;outlineConnect=0;" parent="1" vertex="1">
          <mxGeometry y="-970" width="80" height="150" as="geometry" />
        </mxCell>
        <mxCell id="1AF4PMz-zZm__ZCTEytI-15" style="edgeStyle=orthogonalEdgeStyle;rounded=0;orthogonalLoop=1;jettySize=auto;html=1;exitX=1;exitY=0.5;exitDx=0;exitDy=0;entryX=0;entryY=0.3333333333333333;entryDx=0;entryDy=0;entryPerimeter=0;" parent="1" source="1AF4PMz-zZm__ZCTEytI-14" target="1AF4PMz-zZm__ZCTEytI-18" edge="1">
          <mxGeometry relative="1" as="geometry">
            <mxPoint x="510" y="-960" as="targetPoint" />
          </mxGeometry>
        </mxCell>
        <mxCell id="1AF4PMz-zZm__ZCTEytI-14" value="gerenciar o marketing do hotel" style="ellipse;whiteSpace=wrap;html=1;" parent="1" vertex="1">
          <mxGeometry x="180" y="-980" width="120" height="80" as="geometry" />
        </mxCell>
        <mxCell id="1AF4PMz-zZm__ZCTEytI-16" value="&lt;span style=&quot;color: rgba(0, 0, 0, 0); font-family: monospace; font-size: 0px; text-align: start; text-wrap-mode: nowrap;&quot;&gt;%3CmxGraphModel%3E%3Croot%3E%3CmxCell%20id%3D%220%22%2F%3E%3CmxCell%20id%3D%221%22%20parent%3D%220%22%2F%3E%3CmxCell%20id%3D%222%22%20value%3D%22%22%20style%3D%22ellipse%3BwhiteSpace%3Dwrap%3Bhtml%3D1%3Bcontainer%3D1%3B%22%20vertex%3D%221%22%20parent%3D%221%22%3E%3CmxGeometry%20x%3D%22110%22%20y%3D%22-1130%22%20width%3D%22120%22%20height%3D%2280%22%20as%3D%22geometry%22%2F%3E%3C%2FmxCell%3E%3C%2Froot%3E%3C%2FmxGraphModel%3E&lt;/span&gt;&lt;span style=&quot;color: rgba(0, 0, 0, 0); font-family: monospace; font-size: 0px; text-align: start; text-wrap-mode: nowrap;&quot;&gt;%3CmxGraphModel%3E%3Croot%3E%3CmxCell%20id%3D%220%22%2F%3E%3CmxCell%20id%3D%221%22%20parent%3D%220%22%2F%3E%3CmxCell%20id%3D%222%22%20value%3D%22%22%20style%3D%22ellipse%3BwhiteSpace%3Dwrap%3Bhtml%3D1%3Bcontainer%3D1%3B%22%20vertex%3D%221%22%20parent%3D%221%22%3E%3CmxGeometry%20x%3D%22110%22%20y%3D%22-1130%22%20width%3D%22120%22%20height%3D%2280%22%20as%3D%22geometry%22%2F%3E%3C%2FmxCell%3E%3C%2Froot%3E%3C%2FmxGraphModel%3E&lt;/span&gt;&lt;span style=&quot;color: rgba(0, 0, 0, 0); font-family: monospace; font-size: 0px; text-align: start; text-wrap-mode: nowrap;&quot;&gt;%3CmxGraphModel%3E%3Croot%3E%3CmxCell%20id%3D%220%22%2F%3E%3CmxCell%20id%3D%221%22%20parent%3D%220%22%2F%3E%3CmxCell%20id%3D%222%22%20value%3D%22%22%20style%3D%22ellipse%3BwhiteSpace%3Dwrap%3Bhtml%3D1%3Bcontainer%3D1%3B%22%20vertex%3D%221%22%20parent%3D%221%22%3E%3CmxGeometry%20x%3D%22110%22%20y%3D%22-1130%22%20width%3D%22120%22%20height%3D%2280%22%20as%3D%22geometry%22%2F%3E%3C%2FmxCell%3E%3C%2Froot%3E%3C%2FmxGraphModel%3Ec&lt;/span&gt;&lt;span style=&quot;color: rgba(0, 0, 0, 0); font-family: monospace; font-size: 0px; text-align: start; text-wrap-mode: nowrap;&quot;&gt;%3CmxGraphModel%3E%3Croot%3E%3CmxCell%20id%3D%220%22%2F%3E%3CmxCell%20id%3D%221%22%20parent%3D%220%22%2F%3E%3CmxCell%20id%3D%222%22%20value%3D%22%22%20style%3D%22ellipse%3BwhiteSpace%3Dwrap%3Bhtml%3D1%3Bcontainer%3D1%3B%22%20vertex%3D%221%22%20parent%3D%221%22%3E%3CmxGeometry%20x%3D%22110%22%20y%3D%22-1130%22%20width%3D%22120%22%20height%3D%2280%22%20as%3D%22geometry%22%2F%3E%3C%2FmxCell%3E%3C%2Froot%3E%3C%2FmxGraphModel%3E&lt;/span&gt;&lt;span style=&quot;color: rgba(0, 0, 0, 0); font-family: monospace; font-size: 0px; text-align: start; text-wrap-mode: nowrap;&quot;&gt;%3CmxGraphModel%3E%3Croot%3E%3CmxCell%20id%3D%220%22%2F%3E%3CmxCell%20id%3D%221%22%20parent%3D%220%22%2F%3E%3CmxCell%20id%3D%222%22%20value%3D%22%22%20style%3D%22ellipse%3BwhiteSpace%3Dwrap%3Bhtml%3D1%3Bcontainer%3D1%3B%22%20vertex%3D%221%22%20parent%3D%221%22%3E%3CmxGeometry%20x%3D%22110%22%20y%3D%22-1130%22%20width%3D%22120%22%20height%3D%2280%22%20as%3D%22geometry%22%2F%3E%3C%2FmxCell%3E%3C%2Froot%3E%3C%2FmxGraphModel%3E&lt;/span&gt;&lt;span style=&quot;color: rgba(0, 0, 0, 0); font-family: monospace; font-size: 0px; text-align: start; text-wrap-mode: nowrap;&quot;&gt;%3CmxGraphModel%3E%3Croot%3E%3CmxCell%20id%3D%220%22%2F%3E%3CmxCell%20id%3D%221%22%20parent%3D%220%22%2F%3E%3CmxCell%20id%3D%222%22%20value%3D%22%22%20style%3D%22ellipse%3BwhiteSpace%3Dwrap%3Bhtml%3D1%3Bcontainer%3D1%3B%22%20vertex%3D%221%22%20parent%3D%221%22%3E%3CmxGeometry%20x%3D%22110%22%20y%3D%22-1130%22%20width%3D%22120%22%20height%3D%2280%22%20as%3D%22geometry%22%2F%3E%3C%2FmxCell%3E%3C%2Froot%3E%3C%2FmxGraphModel%3E&lt;/span&gt;" style="ellipse;whiteSpace=wrap;html=1;container=1;" parent="1" vertex="1">
          <mxGeometry x="120" y="-1120" width="120" height="80" as="geometry" />
        </mxCell>
        <mxCell id="1AF4PMz-zZm__ZCTEytI-17" value="v" style="shape=umlActor;verticalLabelPosition=bottom;verticalAlign=top;html=1;outlineConnect=0;" parent="1" vertex="1">
          <mxGeometry x="30" y="-1180" width="80" height="150" as="geometry" />
        </mxCell>
        <mxCell id="1AF4PMz-zZm__ZCTEytI-19" style="edgeStyle=orthogonalEdgeStyle;rounded=0;orthogonalLoop=1;jettySize=auto;html=1;exitX=1;exitY=0.3333333333333333;exitDx=0;exitDy=0;exitPerimeter=0;entryX=0.5;entryY=0;entryDx=0;entryDy=0;" parent="1" source="1AF4PMz-zZm__ZCTEytI-18" target="1AF4PMz-zZm__ZCTEytI-21" edge="1">
          <mxGeometry relative="1" as="geometry">
            <mxPoint x="680" y="-710" as="targetPoint" />
          </mxGeometry>
        </mxCell>
        <mxCell id="1AF4PMz-zZm__ZCTEytI-18" value="cliente" style="shape=umlActor;verticalLabelPosition=bottom;verticalAlign=top;html=1;outlineConnect=0;" parent="1" vertex="1">
          <mxGeometry x="510" y="-1010" width="80" height="150" as="geometry" />
        </mxCell>
        <mxCell id="9RkvXlabg6TjbgNfINeG-4" style="edgeStyle=orthogonalEdgeStyle;rounded=0;orthogonalLoop=1;jettySize=auto;html=1;exitX=0;exitY=0.3333333333333333;exitDx=0;exitDy=0;exitPerimeter=0;entryX=0.45;entryY=0.969;entryDx=0;entryDy=0;entryPerimeter=0;" edge="1" parent="1" source="1AF4PMz-zZm__ZCTEytI-20" target="9RkvXlabg6TjbgNfINeG-5">
          <mxGeometry relative="1" as="geometry">
            <mxPoint x="360" y="-770" as="targetPoint" />
            <Array as="points">
              <mxPoint x="354" y="-681" />
            </Array>
          </mxGeometry>
        </mxCell>
        <mxCell id="9RkvXlabg6TjbgNfINeG-6" style="edgeStyle=orthogonalEdgeStyle;rounded=0;orthogonalLoop=1;jettySize=auto;html=1;exitX=0;exitY=0.3333333333333333;exitDx=0;exitDy=0;exitPerimeter=0;entryX=1;entryY=0.5;entryDx=0;entryDy=0;" edge="1" parent="1" source="1AF4PMz-zZm__ZCTEytI-20" target="9RkvXlabg6TjbgNfINeG-7">
          <mxGeometry relative="1" as="geometry">
            <mxPoint x="170" y="-681" as="targetPoint" />
          </mxGeometry>
        </mxCell>
        <mxCell id="1AF4PMz-zZm__ZCTEytI-20" value="recepcionista&amp;nbsp;" style="shape=umlActor;verticalLabelPosition=bottom;verticalAlign=top;html=1;outlineConnect=0;" parent="1" vertex="1">
          <mxGeometry x="380" y="-731" width="80" height="150" as="geometry" />
        </mxCell>
        <mxCell id="9RkvXlabg6TjbgNfINeG-1" style="edgeStyle=orthogonalEdgeStyle;rounded=0;orthogonalLoop=1;jettySize=auto;html=1;entryX=1;entryY=0.3333333333333333;entryDx=0;entryDy=0;entryPerimeter=0;" edge="1" parent="1" source="1AF4PMz-zZm__ZCTEytI-21" target="1AF4PMz-zZm__ZCTEytI-20">
          <mxGeometry relative="1" as="geometry">
            <mxPoint x="490" y="-680" as="targetPoint" />
          </mxGeometry>
        </mxCell>
        <mxCell id="9RkvXlabg6TjbgNfINeG-2" style="edgeStyle=orthogonalEdgeStyle;rounded=0;orthogonalLoop=1;jettySize=auto;html=1;exitX=0.5;exitY=1;exitDx=0;exitDy=0;entryX=0.5;entryY=0;entryDx=0;entryDy=0;" edge="1" parent="1" source="1AF4PMz-zZm__ZCTEytI-21" target="9RkvXlabg6TjbgNfINeG-3">
          <mxGeometry relative="1" as="geometry">
            <mxPoint x="680" y="-570" as="targetPoint" />
          </mxGeometry>
        </mxCell>
        <mxCell id="9RkvXlabg6TjbgNfINeG-10" style="edgeStyle=orthogonalEdgeStyle;rounded=0;orthogonalLoop=1;jettySize=auto;html=1;exitX=1;exitY=0.5;exitDx=0;exitDy=0;" edge="1" parent="1" source="1AF4PMz-zZm__ZCTEytI-21">
          <mxGeometry relative="1" as="geometry">
            <mxPoint x="760" y="-630" as="targetPoint" />
            <Array as="points">
              <mxPoint x="761" y="-680" />
            </Array>
          </mxGeometry>
        </mxCell>
        <mxCell id="1AF4PMz-zZm__ZCTEytI-21" value="disponibilidade de quartos&amp;nbsp;" style="ellipse;whiteSpace=wrap;html=1;" parent="1" vertex="1">
          <mxGeometry x="620" y="-720" width="120" height="80" as="geometry" />
        </mxCell>
        <mxCell id="9RkvXlabg6TjbgNfINeG-3" value="desistir" style="ellipse;whiteSpace=wrap;html=1;" vertex="1" parent="1">
          <mxGeometry x="620" y="-570" width="120" height="80" as="geometry" />
        </mxCell>
        <mxCell id="9RkvXlabg6TjbgNfINeG-5" value="não disponível" style="ellipse;whiteSpace=wrap;html=1;" vertex="1" parent="1">
          <mxGeometry x="300" y="-850" width="120" height="80" as="geometry" />
        </mxCell>
        <mxCell id="9RkvXlabg6TjbgNfINeG-8" style="edgeStyle=orthogonalEdgeStyle;rounded=0;orthogonalLoop=1;jettySize=auto;html=1;entryX=0.5;entryY=0;entryDx=0;entryDy=0;entryPerimeter=0;" edge="1" parent="1" source="9RkvXlabg6TjbgNfINeG-7" target="9RkvXlabg6TjbgNfINeG-9">
          <mxGeometry relative="1" as="geometry">
            <mxPoint x="-130" y="-680" as="targetPoint" />
          </mxGeometry>
        </mxCell>
        <mxCell id="9RkvXlabg6TjbgNfINeG-7" value="disponível" style="ellipse;whiteSpace=wrap;html=1;" vertex="1" parent="1">
          <mxGeometry x="50" y="-720" width="120" height="80" as="geometry" />
        </mxCell>
        <mxCell id="9RkvXlabg6TjbgNfINeG-15" style="edgeStyle=orthogonalEdgeStyle;rounded=0;orthogonalLoop=1;jettySize=auto;html=1;exitX=1;exitY=0.3333333333333333;exitDx=0;exitDy=0;exitPerimeter=0;entryX=0;entryY=0.5;entryDx=0;entryDy=0;" edge="1" parent="1" source="9RkvXlabg6TjbgNfINeG-9" target="9RkvXlabg6TjbgNfINeG-16">
          <mxGeometry relative="1" as="geometry">
            <mxPoint x="30" y="-510" as="targetPoint" />
          </mxGeometry>
        </mxCell>
        <mxCell id="9RkvXlabg6TjbgNfINeG-9" value="funcionário da limpeza&amp;nbsp;&amp;nbsp;" style="shape=umlActor;verticalLabelPosition=bottom;verticalAlign=top;html=1;outlineConnect=0;" vertex="1" parent="1">
          <mxGeometry x="-190" y="-650" width="80" height="150" as="geometry" />
        </mxCell>
        <mxCell id="9RkvXlabg6TjbgNfINeG-11" value="" style="ellipse;whiteSpace=wrap;html=1;container=1;" vertex="1" parent="1">
          <mxGeometry x="120" y="-1120" width="120" height="80" as="geometry" />
        </mxCell>
        <mxCell id="9RkvXlabg6TjbgNfINeG-12" value="confirmação" style="ellipse;whiteSpace=wrap;html=1;container=1;" vertex="1" parent="1">
          <mxGeometry x="490" y="-720" width="120" height="80" as="geometry" />
        </mxCell>
        <mxCell id="9RkvXlabg6TjbgNfINeG-13" style="edgeStyle=orthogonalEdgeStyle;rounded=0;orthogonalLoop=1;jettySize=auto;html=1;" edge="1" parent="1" source="9RkvXlabg6TjbgNfINeG-12">
          <mxGeometry relative="1" as="geometry">
            <mxPoint x="460" y="-680" as="targetPoint" />
          </mxGeometry>
        </mxCell>
        <mxCell id="9RkvXlabg6TjbgNfINeG-16" value="gerenciar o quarto e a limpeza" style="ellipse;whiteSpace=wrap;html=1;container=1;" vertex="1" parent="1">
          <mxGeometry x="50" y="-550" width="120" height="80" as="geometry" />
        </mxCell>
      </root>
    </mxGraphModel>
  </diagram>
  <diagram id="aAAxCDUfOXyn2Ty9hk6b" name="Página-4">
    <mxGraphModel dx="1032" dy="1699" grid="1" gridSize="10" guides="1" tooltips="1" connect="1" arrows="1" fold="1" page="1" pageScale="1" pageWidth="827" pageHeight="1169" math="0" shadow="0">
      <root>
        <mxCell id="0" />
        <mxCell id="1" parent="0" />
        <mxCell id="cuTJpUZwnf6Fj5Hf7oB--1" value="" style="ellipse;whiteSpace=wrap;html=1;container=1;" vertex="1" parent="1">
          <mxGeometry x="280" y="-1150" width="120" height="80" as="geometry" />
        </mxCell>
        <mxCell id="cuTJpUZwnf6Fj5Hf7oB--2" value="Usuário" style="shape=umlActor;verticalLabelPosition=bottom;verticalAlign=top;html=1;outlineConnect=0;" vertex="1" parent="1">
          <mxGeometry x="80" y="-970" width="80" height="160" as="geometry" />
        </mxCell>
        <mxCell id="Org1ET9JWr8FT5NsINEZ-1" value="EDU PATH : Funcionamento em geral&amp;nbsp;" style="shape=note;whiteSpace=wrap;html=1;backgroundOutline=1;fontColor=#000000;darkOpacity=0.05;fillColor=#FFF9B2;strokeColor=none;fillStyle=solid;direction=west;gradientDirection=north;gradientColor=#FFF2A1;shadow=1;size=20;pointerEvents=1;" vertex="1" parent="1">
          <mxGeometry x="414" y="-1160" width="140" height="160" as="geometry" />
        </mxCell>
      </root>
    </mxGraphModel>
  </diagram>
</mxfile>
